<svg width="7" height="13" xmlns="http://www.w3.org/2000/svg">
  <path d="M3.3 0c.5 0 1 0 1.4.2l1 .5c.3.3.5.6.6 1 .2.3.2.6.2 1 0 .5 0 .9-.3 1.2-.2.4-.6.7-1 1 .6.1 1 .4 1.3.9.3.4.5 1 .5 1.5s0 1-.2 1.4A2.7 2.7 0 0 1 5 10.2a4 4 0 0 1-2.4 0c-.4 0-.7-.2-1-.4V13H0V3c0-.5 0-.9.3-1.2.1-.4.4-.7.7-1l1-.6L3.3 0zm0 4.3l.7-.1.5-.3.3-.5v-.6-.5a1.4 1.4 0 0 0-.8-.8l-.7-.2a1.7 1.7 0 0 0-1.1.5l-.4.5V8.5c.1.2.4.3.7.4l1 .2.7-.1a1.6 1.6 0 0 0 1-1v-.7-.6c0-.3-.2-.4-.3-.6l-.5-.4-.7-.1h-1V4.3h.6z" fill="#B36108" fill-rule="evenodd"/>
</svg>