<svg height="45" width="45" xmlns="http://www.w3.org/2000/svg">
  <g fill="none">
    <g fill="#106ba3">
      <path d="M43.48 24.75a9.92 9.92 0 0 0-4.23.62c-.32.13-.85.13-.89.56.17.17.2.46.35.7.26.45.72 1.05 1.13 1.36.46.35.91.7 1.4 1.02.84.53 1.8.84 2.63 1.37.48.31.95.71 1.43 1.04.24.18.4.47.7.58v-.07c-.15-.2-.2-.48-.35-.7l-.65-.65a10.41 10.41 0 0 0-2.27-2.24c-.7-.49-2.22-1.15-2.5-1.97l-.04-.05c.48-.04 1.04-.22 1.5-.35.74-.2 1.41-.16 2.18-.35l1.04-.31v-.2c-.39-.4-.67-.94-1.09-1.31a29.13 29.13 0 0 0-3.59-2.73c-.67-.44-1.54-.73-2.26-1.1-.26-.14-.7-.2-.85-.43-.4-.49-.61-1.13-.9-1.7a56.48 56.48 0 0 1-1.78-3.86c-.39-.87-.63-1.73-1.1-2.53-2.25-3.77-4.69-6.06-8.43-8.3-.8-.46-1.76-.66-2.79-.9l-1.63-.1c-.35-.15-.7-.57-1-.77-1.24-.8-4.44-2.53-5.35-.24C13.55 2.58 15 4 15.5 4.73c.37.5.85 1.09 1.1 1.66.16.38.2.78.36 1.18.34.97.67 2.06 1.13 2.97.24.46.5.95.8 1.37.18.25.48.36.55.76-.3.44-.33 1.1-.5 1.66-.79 2.5-.48 5.6.63 7.45.35.55 1.17 1.77 2.28 1.3.98-.4.77-1.66 1.05-2.76.06-.27.02-.45.15-.62v.04c.3.62.61 1.22.9 1.84a12.52 12.52 0 0 0 2.82 2.97c.53.4.94 1.09 1.6 1.33v-.07h-.05c-.13-.2-.33-.28-.5-.44-.4-.4-.83-.89-1.13-1.33a28.53 28.53 0 0 1-2.44-4.03c-.35-.7-.66-1.45-.94-2.13-.13-.27-.13-.67-.35-.8-.32.49-.8.9-1.04 1.5-.41.96-.46 2.14-.61 3.35-.09.03-.04 0-.09.05-.7-.18-.93-.91-1.2-1.53a9.76 9.76 0 0 1-.19-5.92c.15-.47.8-1.93.54-2.37-.13-.42-.56-.67-.8-1a8.98 8.98 0 0 1-.78-1.42c-.53-1.24-.79-2.62-1.36-3.86-.26-.57-.71-1.17-1.08-1.7-.42-.6-.87-1.02-1.2-1.73-.1-.25-.26-.65-.09-.91.05-.18.13-.25.3-.3.3-.24 1.1.08 1.38.2.8.34 1.48.65 2.15 1.12.3.22.63.64 1.03.75h.45c.7.16 1.48.04 2.14.24 1.15.38 2.2.94 3.13 1.53a19.55 19.55 0 0 1 6.8 7.59c.25.5.36.97.6 1.5.46 1.1 1.02 2.2 1.48 3.26.46 1.04.9 2.11 1.54 2.97.33.47 1.64.71 2.22.96.44.2 1.11.37 1.5.62.75.46 1.49 1 2.18 1.5.35.27 1.44.83 1.5 1.27z"/>
      <path d="M20.18 4.92c-.52 0-.89.06-1.26.13v.05h.06c.25.41.68.7.99 1.05.25.41.46.82.7 1.23l.07-.05c.43-.25.65-.66.65-1.28-.19-.18-.22-.36-.38-.54-.18-.25-.58-.38-.83-.59z"/>
    </g>
    <path d="M12.4 41.38h-2c-.06-3.4-.26-6.58-.57-9.56H9.8l-3.03 9.55H5.26l-3-9.55h-.02a158.3 158.3 0 0 0-.43 9.55H0c.12-4.26.41-8.25.88-11.98h2.47l2.87 8.8h.01l2.9-8.8h2.35c.52 4.37.82 8.36.92 11.98zm8.62-8.85c-.8 4.43-1.87 7.65-3.2 9.66-1.03 1.55-2.17 2.33-3.4 2.33-.33 0-.73-.1-1.21-.3v-1.07c.23.03.5.05.82.05.58 0 1.04-.16 1.4-.48.42-.39.63-.82.63-1.31a8.8 8.8 0 0 0-.5-2.04l-2.18-6.84h1.96l1.56 5.11c.36 1.16.5 1.98.44 2.44.86-2.31 1.46-4.83 1.8-7.55h1.88z" fill="#106ba3"/>
    <path d="M44.99 39.94h-5.13V29.16h1.73v9.46h3.4zm-6.47.26l-1.98-.98c.18-.14.35-.3.5-.48.84-.99 1.26-2.45 1.26-4.39 0-3.57-1.4-5.35-4.2-5.35-1.37 0-2.44.45-3.2 1.36-.85.99-1.27 2.45-1.27 4.38 0 1.89.37 3.28 1.12 4.16.68.8 1.7 1.2 3.08 1.2.51 0 .98-.06 1.41-.19l2.58 1.5zm-6.41-2.42c-.44-.7-.66-1.83-.66-3.38 0-2.71.83-4.07 2.48-4.07.86 0 1.5.32 1.9.97.43.7.65 1.82.65 3.35 0 2.74-.82 4.1-2.47 4.1-.87 0-1.5-.31-1.9-.96zm-3.23-.83c0 .92-.34 1.67-1 2.25-.68.6-1.58.88-2.7.88a5.4 5.4 0 0 1-3.07-1l.47-.93c.85.43 1.62.64 2.3.64.66 0 1.17-.15 1.53-.43.37-.29.6-.69.6-1.2 0-.64-.46-1.19-1.28-1.64a194.12 194.12 0 0 1-2.26-1.29c-.82-.6-1.23-1.23-1.23-2.29 0-.87.3-1.58.92-2.12.61-.54 1.4-.8 2.37-.8 1 0 1.9.26 2.73.8l-.42.92c-.7-.3-1.39-.45-2.07-.45-.55 0-.98.14-1.28.4-.3.27-.48.61-.48 1.03 0 .63.45 1.19 1.3 1.66.76.41 2.31 1.3 2.31 1.3.84.6 1.26 1.23 1.26 2.27z" fill="#f29d49"/>
  </g>
</svg>