<svg xmlns="http://www.w3.org/2000/svg" width="12.844" height="21.656" viewBox="0 0 12.844 21.656">
  <defs>
    <style>
      .cls-1 {
        fill-rule: evenodd;
      }
    </style>
  </defs>
  <path id="Branch" class="cls-1" d="M10.15,4.411a4.755,4.755,0,0,0,0,3.263,6.133,6.133,0,0,0,2.173,2.842A6.133,6.133,0,0,0,14.5,7.674a4.754,4.754,0,0,0,0-3.263,6.241,6.241,0,0,0-2.172-2.86A6.241,6.241,0,0,0,10.15,4.411ZM7.52,12.533a5.3,5.3,0,0,0,3.887,1.613,5.3,5.3,0,0,0-1.613-3.887A5.3,5.3,0,0,0,5.906,8.646,5.3,5.3,0,0,0,7.52,12.533Zm7.333-2.273a5.3,5.3,0,0,0-1.613,3.887,5.3,5.3,0,0,0,3.887-1.613A5.3,5.3,0,0,0,18.74,8.646,5.3,5.3,0,0,0,14.853,10.259ZM7.52,18.033a5.3,5.3,0,0,0,3.887,1.613,5.3,5.3,0,0,0-1.613-3.887,5.3,5.3,0,0,0-3.887-1.613A5.3,5.3,0,0,0,7.52,18.033Zm7.333-2.273a5.3,5.3,0,0,0-1.613,3.887,5.508,5.508,0,0,0,5.5-5.5A5.3,5.3,0,0,0,14.853,15.759Zm-2.658,4.015q-0.055,0-.788-0.073v2.6a0.917,0.917,0,1,0,1.833,0v-2.64a8.123,8.123,0,0,1-1.045.11h0Z" transform="translate(-5.906 -1.563)"/>
</svg>
