<svg xmlns="http://www.w3.org/2000/svg" width="16.594" height="11.406" viewBox="0 0 16.594 11.406">
  <defs>
    <style>
      .cls-1 {
        fill-rule: evenodd;
      }
    </style>
  </defs>
  <path id="Collapse_" data-name="Collapse&gt;" class="cls-1" d="M19.871,7.739l-7.733,7.733L4.4,7.739a0.331,0.331,0,0,0-.383-0.117,0.344,0.344,0,0,0-.183.35v2.667a0.556,0.556,0,0,0,.15.383l7.85,7.85a0.444,0.444,0,0,0,.6,0l7.85-7.85a0.556,0.556,0,0,0,.15-0.383V7.972a0.344,0.344,0,0,0-.183-0.35,0.331,0.331,0,0,0-.383.117h0Z" transform="translate(-3.844 -7.594)"/>
</svg>
