<svg xmlns="http://www.w3.org/2000/svg" width="15.594" height="19.625" viewBox="0 0 15.594 19.625">
  <defs>
    <style>
      .cls-1 {
        fill-rule: evenodd;
      }
    </style>
  </defs>
  <path id="Down" class="cls-1" d="M10.167,2.591a0.8,0.8,0,0,0-.242.592v9.167H5.076a0.422,0.422,0,0,0-.433.192A0.449,0.449,0,0,0,4.776,13l7.117,8.7a0.667,0.667,0,0,0,1.067,0L20.076,13a0.451,0.451,0,0,0,.133-0.458,0.422,0.422,0,0,0-.433-0.192h-4.85V3.183a0.825,0.825,0,0,0-.833-0.833H10.759A0.8,0.8,0,0,0,10.167,2.591Z" transform="translate(-4.625 -2.344)"/>
</svg>
