<svg xmlns="http://www.w3.org/2000/svg" width="11.375" height="16.594" viewBox="0 0 11.375 16.594">
  <defs>
    <style>
      .cls-1 {
        fill-rule: evenodd;
      }
    </style>
  </defs>
  <path id="Expand_" data-name="Expand&gt;" class="cls-1" d="M7.58,4.274a0.331,0.331,0,0,0,.117.383l7.733,7.733L7.7,20.124a0.331,0.331,0,0,0-.117.383,0.343,0.343,0,0,0,.35.183H10.6a0.557,0.557,0,0,0,.383-0.15l7.85-7.85a0.444,0.444,0,0,0,0-.6L10.98,4.24A0.557,0.557,0,0,0,10.6,4.09H7.93A0.344,0.344,0,0,0,7.58,4.274Z" transform="translate(-7.563 -4.094)"/>
</svg>
