<svg xmlns="http://www.w3.org/2000/svg" width="21.25" height="20.563" viewBox="0 0 21.25 20.563">
  <defs>
    <style>
      .cls-1 {
        fill-rule: evenodd;
      }
    </style>
  </defs>
  <path id="Home" class="cls-1" d="M1.427,12.917A0.212,0.212,0,0,0,1.635,13H4.552v9.583A0.427,0.427,0,0,0,4.969,23H9.135a0.427,0.427,0,0,0,.417-0.417v-6.25h5v6.25a0.427,0.427,0,0,0,.417.417h4.167a0.427,0.427,0,0,0,.417-0.417V13h2.917a0.213,0.213,0,0,0,.208-0.083,0.2,0.2,0,0,0-.092-0.217L12.452,2.567A0.4,0.4,0,0,0,12.16,2.45a0.455,0.455,0,0,0-.308.117L1.519,12.7A0.2,0.2,0,0,0,1.427,12.917Z" transform="translate(-1.438 -2.438)"/>
</svg>
