<svg xmlns="http://www.w3.org/2000/svg" width="24" height="16.094" viewBox="0 0 24 16.094">
  <defs>
    <style>
      .cls-1 {
        fill-rule: evenodd;
      }
    </style>
  </defs>
  <path id="IndexTerm" class="cls-1" d="M14.3,19.18L14.349,20.1H9.87V19.208H0V7.017H0.749V18.595h9.874v0.753h2.926V18.595h9.707V7.017h0.753V19.18H14.3Zm-1.816-1.432V5.511A8.9,8.9,0,0,1,17.38,4,8.291,8.291,0,0,1,22.275,5.7V17.747A8.939,8.939,0,0,0,12.486,17.747ZM19.9,12.926h-2.8l2.732-4.265V8.087H15.722V8.972h2.716l-2.72,4.238v0.6H19.9V12.926ZM1.753,17.747V5.511A8.9,8.9,0,0,1,6.648,4,8.292,8.292,0,0,1,11.542,5.7V17.747a9.085,9.085,0,0,0-4.894-1.459A9.084,9.084,0,0,0,1.753,17.747ZM8.23,13.81H9.39L7.428,8.087H6.253L4.284,13.81H5.443l0.389-1.234H7.841ZM6.85,9.428l0.707,2.248H6.115L6.827,9.428H6.85Z" transform="translate(0 -4)"/>
</svg>
