<svg xmlns="http://www.w3.org/2000/svg" width="21.969" height="21.625" viewBox="0 0 21.969 21.625">
  <defs>
    <style>
      .cls-1 {
        fill-rule: evenodd;
      }
    </style>
  </defs>
  <path id="Leaf" class="cls-1" d="M19.178,2.054q-1.76.431-2.887,0.678T13.925,3.3a17.352,17.352,0,0,0-2.081.66,16.4,16.4,0,0,0-1.732.825A8.588,8.588,0,0,0,8.471,5.95,11.9,11.9,0,0,0,7,7.563a11.094,11.094,0,0,0-1.43,2.374A8.671,8.671,0,0,0,4.9,12.321a14.12,14.12,0,0,0-.128,2.035,13.4,13.4,0,0,0,.183,1.879,1.941,1.941,0,0,1-.238,1.118,3.106,3.106,0,0,1-.642.862L2.852,19.278q-0.779.678-.926,0.825a2.4,2.4,0,0,0-.77,1.87,1.087,1.087,0,0,0,.2.8q0.2,0.174.678-.266l2.805-2.8A4.125,4.125,0,0,1,5.8,18.958a2.407,2.407,0,0,1,.623-0.266,0.705,0.705,0,0,1,.229,0,7.788,7.788,0,0,1,1.43.2q1.027,0.2,1.65.3t1.925,0.174a9.865,9.865,0,0,0,2.2-.082,13.853,13.853,0,0,0,2.172-.605A6.282,6.282,0,0,0,18.2,17.427a14.186,14.186,0,0,0,1.879-2.172,11.605,11.605,0,0,0,1.595-3.2,28.476,28.476,0,0,0,1.018-4.5,42.119,42.119,0,0,0,.449-5.931A0.462,0.462,0,0,0,22.9,1.3a0.434,0.434,0,0,0-.385-0.119Q20.938,1.623,19.178,2.054Zm2.548,1.164a9.143,9.143,0,0,1-.44,1.1A18.413,18.413,0,0,1,19.7,7.041a12.234,12.234,0,0,1-1.815,2.035,16.72,16.72,0,0,1-1.87,1.457q-0.889.587-2.172,1.265-1.668.9-2.7,1.485T8.838,14.7a8.368,8.368,0,0,0-1.723,1.384A9.46,9.46,0,0,1,6.1,17.179a0.913,0.913,0,0,1-.577.321q-0.165-.036-0.037-0.587a10.388,10.388,0,0,1,.568-1.577,8.557,8.557,0,0,1,1.173-1.916,13.3,13.3,0,0,1,1.568-1.668,21.741,21.741,0,0,1,1.879-1.476q1.063-.752,1.907-1.247t1.87-1.045l1.137-.605a27.841,27.841,0,0,0,2.6-1.641,10.714,10.714,0,0,0,2.182-1.9A7.513,7.513,0,0,1,21.2,2.925q0.266-.22.412-0.055A0.392,0.392,0,0,1,21.726,3.218Z" transform="translate(-1.156 -1.188)"/>
</svg>
