<svg xmlns="http://www.w3.org/2000/svg" width="19.625" height="15.594" viewBox="0 0 19.625 15.594">
  <defs>
    <style>
      .cls-1 {
        fill-rule: evenodd;
      }
    </style>
  </defs>
  <path id="Next" class="cls-1" d="M12.294,4.451a0.422,0.422,0,0,0-.192.433v4.85H2.935a0.825,0.825,0,0,0-.833.833V13.9a0.825,0.825,0,0,0,.833.833H12.1v4.85a0.422,0.422,0,0,0,.192.433,0.45,0.45,0,0,0,.458-0.133l8.7-7.117a0.667,0.667,0,0,0,0-1.067l-8.7-7.117A0.451,0.451,0,0,0,12.294,4.451Z" transform="translate(-2.094 -4.438)"/>
</svg>
