<svg xmlns="http://www.w3.org/2000/svg" width="19.625" height="15.594" viewBox="0 0 19.625 15.594">
  <defs>
    <style>
      .cls-1 {
        fill-rule: evenodd;
      }
    </style>
  </defs>
  <path id="Previous" class="cls-1" d="M1.915,11.927a0.662,0.662,0,0,0,.267.533l8.7,7.117a0.45,0.45,0,0,0,.458.133,0.422,0.422,0,0,0,.192-0.433v-4.85H20.7a0.825,0.825,0,0,0,.833-0.833V10.26A0.825,0.825,0,0,0,20.7,9.427H11.531V4.577a0.422,0.422,0,0,0-.192-0.433,0.451,0.451,0,0,0-.458.133l-8.7,7.117A0.663,0.663,0,0,0,1.915,11.927Z" transform="translate(-1.906 -4.125)"/>
</svg>
