<svg xmlns="http://www.w3.org/2000/svg" width="22" height="22" viewBox="0 0 22 22">
  <defs>
    <style>
      .cls-1 {
        fill-rule: evenodd;
      }
    </style>
  </defs>
  <path id="Print" class="cls-1" d="M16.637,0.832a0.5,0.5,0,0,1,.165.321l1.522,5.518A0.946,0.946,0,0,1,18.2,7.5l-1.137,1.98a0.845,0.845,0,0,1-.321.275,0.859,0.859,0,0,1-.394.11H8.094A0.857,0.857,0,0,1,7.7,9.751a0.842,0.842,0,0,1-.321-0.275L6.334,7.5a0.944,0.944,0,0,1-.128-0.825l1.43-5.518A0.5,0.5,0,0,1,7.8.832,0.492,0.492,0,0,1,8.149.695h8.14A0.492,0.492,0,0,1,16.637.832Zm6.444,7.333a0.44,0.44,0,0,1,.138.321V20.4a0.47,0.47,0,0,1-.458.458h-2.75a0.47,0.47,0,0,1-.458-0.458v-2.75a0.47,0.47,0,0,0-.458-0.458H5.344a0.47,0.47,0,0,0-.458.458V20.4a0.47,0.47,0,0,1-.458.458H1.677a0.44,0.44,0,0,1-.321-0.137A0.44,0.44,0,0,1,1.219,20.4V8.486a0.44,0.44,0,0,1,.137-0.321,0.44,0.44,0,0,1,.321-0.137h2.75a0.762,0.762,0,0,1,.385.119,0.644,0.644,0,0,1,.275.284l1.43,2.86a0.64,0.64,0,0,0,.275.284,0.757,0.757,0,0,0,.385.119H17.261a0.759,0.759,0,0,0,.385-0.119,0.644,0.644,0,0,0,.275-0.284l1.43-2.86a0.641,0.641,0,0,1,.275-0.284,0.76,0.76,0,0,1,.385-0.119h2.75A0.44,0.44,0,0,1,23.081,8.166ZM17.16,19.157a0.508,0.508,0,0,1,.211.312l0.7,2.787a0.366,0.366,0,0,1-.064.312,0.341,0.341,0,0,1-.284.128h-11a0.34,0.34,0,0,1-.284-0.128,0.364,0.364,0,0,1-.064-0.312l0.7-2.787a0.506,0.506,0,0,1,.211-0.312,0.6,0.6,0,0,1,.357-0.128H16.8A0.6,0.6,0,0,1,17.16,19.157Z" transform="translate(-1.219 -0.688)"/>
</svg>
