<svg xmlns="http://www.w3.org/2000/svg" width="15.594" height="19.625" viewBox="0 0 15.594 19.625">
  <defs>
    <style>
      .cls-1 {
        fill-rule: evenodd;
      }
    </style>
  </defs>
  <path id="Up" class="cls-1" d="M11.955,2.127a0.663,0.663,0,0,0-.533.267L4.3,11.094a0.45,0.45,0,0,0-.133.458,0.422,0.422,0,0,0,.433.192h4.85v9.167a0.825,0.825,0,0,0,.833.833h3.333a0.825,0.825,0,0,0,.833-0.833V11.744H19.3a0.422,0.422,0,0,0,.433-0.192,0.451,0.451,0,0,0-.133-0.458l-7.117-8.7A0.664,0.664,0,0,0,11.955,2.127Z" transform="translate(-4.156 -2.125)"/>
</svg>
