<?xml version="1.0" ?><!DOCTYPE svg  PUBLIC '-//W3C//DTD SVG 1.1//EN'  'http://www.w3.org/Graphics/SVG/1.1/DTD/svg11.dtd'><svg height="21.396px" id="Capa_1" style="enable-background:new 0 0 18.588 21.396;" version="1.1" viewBox="0 0 18.588 21.396" width="18.588px" xml:space="preserve" xmlns="http://www.w3.org/2000/svg" xmlns:xlink="http://www.w3.org/1999/xlink"><path d="M0.012,2.552c0.018,1.33,0.009,2.683,0,4.036  C0.001,7.94-0.008,9.294,0.01,10.624c-0.018,1.329-0.009,2.682,0.001,4.035c0.009,1.354,0.019,2.706,0,4.036  c2.696,3.602,15.868,3.602,18.564,0c-0.019-1.33-0.009-2.683,0-4.036c0.009-1.353,0.019-2.706,0.001-4.035  c0.018-1.33,0.008-2.683-0.001-4.036s-0.019-2.706,0-4.036C12.349-2.29,0.706,0.957,0.012,2.552L0.012,2.552z M17.271,4.478  c0.002,0.503,0.005,0.825,0.008,1.33c0.008,1.264-0.006,2.873-0.022,4.114c0.016,1.242,0.007,2.505-0.001,3.769  c-0.008,1.264-0.017,3.054,0,4.296c-2.025,2.946-13.779,3.118-15.918,0.006c0.015-1.242,0.007-3.038-0.001-4.302  c-0.008-1.264-0.016-2.527,0-3.769C1.321,8.68,1.352,7.071,1.36,5.808c0.003-0.505,0.007-0.826,0.008-1.33  C2.758,5.591,5.796,6.18,9.319,6.18S15.881,5.591,17.271,4.478z" style="fill-rule:evenodd;clip-rule:evenodd;fill:#CCCCCC;"/><g/><g/><g/><g/><g/><g/><g/><g/><g/><g/><g/><g/><g/><g/><g/></svg>