<svg viewBox="0 0 45 45" xmlns="http://www.w3.org/2000/svg">
  <g fill="none">
    <path d="M35.51 32.26l-.07.59c-.11 4.36-.75 7.2-2.05 9.04a6.23 6.23 0 0 1-2.42 2.07c-.73.35-1.46.57-2.53.8-2.98.64-5-.46-6.04-2.65-.15-.3-.26-.6-.38-.94l-.19-.57c-.43-1.17-.6-2.7-.7-5.3a78.68 78.68 0 0 1-.06-1.82c-.53.23-1.08.4-1.65.5a8.7 8.7 0 0 1-3.65-.2 4.33 4.33 0 0 1-2.32-1.32c-1.8 1.5-3.93 1.34-5.69-.37-1.34-1.3-2.5-3.49-3.58-6.43-1.6-4.33-3.03-10.73-3.15-13.16-.2-4.11.73-7.2 2.75-9.23C5.5 1.52 7.86.7 10.6.61c1.97-.06 4.03.25 6.07.8.54.15 1.05.3 1.52.46C19.79.93 21.67.45 23.83.48c1.15.02 2.23.12 3.24.3A18.97 18.97 0 0 1 32.62 0c1.88.02 3.7.35 5.4 1.04a12.6 12.6 0 0 1 5.26 3.98c1.44 1.84 1.38 5.4.24 9.83a43.2 43.2 0 0 1-4.6 10.97c.6-.02 1.34-.11 2.25-.3.4-.09.77-.13 1.12-.11.52.01 1 .15 1.44.48.62.46.9 1.19.84 1.92-.05.45-.21.84-.45 1.2a7.86 7.86 0 0 1-3.15 2.4c-1.32.62-3.4.96-5.07.88h-.04zm-18.66-5.43c.75.4 1.6.65 2.5.67v.07l-.76.93c-.28.31-.53.46-1.14.64-.3.09-.69.18-1.2.29-.75.15-1.27.35-1.6.62-.44.35-.56.87-.3 1.33.27.52 1.02.93 1.8 1.13 1.02.25 2.05.35 3.12.16a5.63 5.63 0 0 0 2.89-1.4c-.04 4.38.17 8.03.61 9.12.43 1.08.85 1.79 1.58 2.4 1.05.89 2.46 1.2 4.27.8 3.2-.67 4.54-2.07 5.07-5.15a180.58 180.58 0 0 0 1.02-7.67 6.2 6.2 0 0 0 1.84.21c1.4-.01 2.97-.31 3.96-.77a6.76 6.76 0 0 0 2.62-1.96c.14-.2.23-.41.25-.63a.88.88 0 0 0-.34-.8c-.35-.26-.85-.28-1.55-.13-1.39.28-2.48.37-3.3.3a2.53 2.53 0 0 1-1.24-.37c5.05-7.68 7.66-18 5.4-20.9a11.34 11.34 0 0 0-4.93-3.66 13.8 13.8 0 0 0-5.1-.86 17.87 17.87 0 0 0-5.26.87h-.02c-1-.24-2.05-.38-3.16-.4a9.1 9.1 0 0 0-5.42 1.5 18.84 18.84 0 0 0-2.03-.65 19.6 19.6 0 0 0-5.72-.74c-2.45.09-4.5.81-5.97 2.3-1.75 1.77-2.58 4.5-2.4 8.3.05.92.4 2.95.9 5.17.6 2.68 1.35 5.35 2.18 7.61C6.44 27.94 7.53 30 8.7 31.13c1.52 1.47 3.2 1.4 4.7-.39a88.77 88.77 0 0 1 3.45-3.9zm11-24.53a.63.63 0 0 0-.7-.26l.12-.02.14.01.15.05c.12.06.12.06.24.2l.04.02z" fill="#000"/>
    <path d="M36.1 25.17c.57-.94.88-1.93.97-3.01.07-.88.02-1.6-.15-3.03-.14-1.2-.18-1.65-.16-2.22a14.06 14.06 0 0 1 .28-2.38 10.29 10.29 0 0 0 .13-1.96.91.91 0 0 0 .02-.28c0-.12-.03-.27-.07-.44a8.78 8.78 0 0 0-.43-1.23 15.8 15.8 0 0 0-2.12-3.6 13.82 13.82 0 0 0-5.3-4.23c.99-.2 2.06-.33 3.16-.34 3.64-.03 6.78 1.18 9.03 4.05.8 1.01.75 3.96-.21 7.66a40.75 40.75 0 0 1-4.93 11.28l-.22-.27zm-.8-1.15a6.23 6.23 0 0 1-.33-.69c-.1-.21-1.26-2.32-1.66-3.11-.44-.87-.8-1.67-1.06-2.43-.62-1.71-.73-3.04-.29-3.83.48-.86 1.73-1.24 3.96-.96a10.33 10.33 0 0 1-.2 1.86c-.14.87-.2 1.36-.22 2-.02.67.02 1.16.17 2.42.17 1.35.2 2 .14 2.77-.06.7-.22 1.35-.51 1.97zM15.14 13.03l.07-.67c.16-1.3.44-2.6.89-3.8a9.23 9.23 0 0 1 2.61-3.93 7.65 7.65 0 0 1 5.25-1.7c4.1.07 7.3 1.9 9.62 4.87a14.55 14.55 0 0 1 2.19 3.92c-2.53-.26-4.15.29-4.9 1.62-.68 1.2-.54 2.85.2 4.88.28.8.66 1.65 1.11 2.56.43.85 1.57 2.9 1.62 3.03a7.57 7.57 0 0 0 1.16 1.94l.37.47.19.25a7.15 7.15 0 0 0-.5.18c-.95.43-1.45 1.33-1.37 2.87-.11 1.42-.8 6.94-1.1 8.71-.45 2.57-1.4 3.56-4.1 4.14-1.44.3-2.45.09-3.19-.53-.53-.45-.86-1.01-1.22-1.92-.42-1.05-.63-5.82-.48-11 0-.07 0-.15-.03-.21a2.57 2.57 0 0 0-1.46-2.01 1.95 1.95 0 0 0-1.28-.16 22.57 22.57 0 0 1 1.24-3.27c.49-1.1.76-2.04.89-3.24.16-1.52.03-3.3-.43-5.45-.27-1.25-.95-2.08-1.95-2.47a4.92 4.92 0 0 0-2.87-.07 9.82 9.82 0 0 0-2.53.99zm-1.3 1.36l.01.43.04.6c.09 1.7.07 3.19-.16 4.79a6.57 6.57 0 0 0 2.17 5.9 83.8 83.8 0 0 0-3.37 3.83c-1.02 1.22-1.86 1.25-2.85.29-1-.98-2.02-2.89-2.98-5.5a60.75 60.75 0 0 1-3-12.42c-.17-3.46.56-5.85 2.03-7.34 1.23-1.24 2.97-1.85 5.13-1.93 1.69-.06 3.52.2 5.34.7.44.11.85.24 1.22.36a10.82 10.82 0 0 0-2.5 4.03 17.67 17.67 0 0 0-1.09 6.26zm22.48 13.26c.96.69 2.72.85 5.52.27h.03c-.4.37-1.05.8-1.79 1.15-.81.38-2.21.64-3.44.65-.6.01-1.12-.04-1.46-.15a.96.96 0 0 1-.28-.13c-.05-1.03.18-1.44.64-1.65l.25-.09.29-.08.15-.05.1.08zm-19.72 3c.55-.1.96-.2 1.3-.3a3.27 3.27 0 0 0 1.73-1.02c.08-.09.73-.9 1.02-1.23.22-.25.38-.34.52-.35.1-.01.2.02.42.1.55.24.9 1.18.58 1.64a4.52 4.52 0 0 1-3.01 1.94c-.87.15-1.74.07-2.61-.14a2.99 2.99 0 0 1-.84-.37c.19-.08.48-.18.9-.26zm-1.62-10.27c.23-1.7.26-3.25.16-5.02l-.03-.62-.01-.17.04-.04a8.57 8.57 0 0 1 2.81-1.26c1.82-.42 2.97.02 3.3 1.57.45 2.04.56 3.68.42 5.06a9.16 9.16 0 0 1-.79 2.87l-.32.72c-.13.3-.22.5-.3.72a18 18 0 0 0-.68 2.03c-2.78 0-5.04-2.73-4.6-5.86zm3.4-6.3l-.03.19c-.05.38.52.98 1.08 1.06.57.08 1.2-.34 1.25-.74.05-.37-.45-.65-1.09-.74-.51-.07-.98 0-1.16.24zm15.37.73c.52-.07 1.04-.62 1-.95-.04-.29-.55-.4-1.13-.32-.58.08-1.04.33-1 .62.05.33.62.72 1.13.65z" fill="#106ba3"/>
  </g>
</svg>