<svg width="48" height="48" xmlns="http://www.w3.org/2000/svg">
 <g>
  <title>Layer 1</title>
  <g id="background">
   <rect x="-84" y="-3" id="svg_19" width="45" height="47" fill="none"/>
  </g>
  <g id="database">
   <path id="svg_20" d="m46.973061,7.498501c0.046242,-0.408 -0.351086,-2.572502 -3.599895,-4.276502c-3.226555,-1.726501 -9.073395,-3.216 -20.371454,-3.222c-11.301482,0.005999 -17.148322,1.495499 -20.376583,3.222c-3.247102,1.702502 -3.644427,3.867 -3.598186,4.276502l0,0v34.109996c-0.059942,0.529507 0.522345,2.442001 3.72663,3.787506c3.197435,1.388996 8.97063,2.594997 20.246427,2.604c11.272369,-0.009003 17.048992,-1.215004 20.243004,-2.604c3.20771,-1.345505 3.789997,-3.259506 3.730057,-3.787506v-34.109996l0,0zm-3.803699,34.361999c-1.073803,0.967506 -5.73209,3.167995 -20.169361,3.139503c-10.984653,0.010498 -16.339974,-1.231499 -18.710221,-2.285999c-1.188546,-0.525005 -1.690341,-0.972004 -1.841051,-1.170006c-0.030827,-0.040501 0.015414,-0.070496 0.003425,-0.092991l-0.003425,-29.776507c0.061653,0.034501 0.109607,0.0705 0.1764,0.103499c3.228261,1.7235 9.0751,3.211502 20.376583,3.222001c11.298059,-0.008998 17.144899,-1.498501 20.373159,-3.220499c0.06337,-0.034501 0.113029,-0.072003 0.176399,-0.105001v29.779506c-0.034252,0.062996 -0.130157,0.193493 -0.381908,0.406494z"/>
  </g>
  <text font-style="italic" font-weight="bold" transform="matrix(0.5837216303228485,0,0,0.8278242945740999,9.744836014555093,3.013658155582168) " xml:space="preserve" text-anchor="middle" font-family="Serif" font-size="24" id="svg_21" y="40.5" x="23.564583" stroke-linecap="null" stroke-linejoin="null" stroke-width="0" fill="#000000">HDFS</text>
 </g>
</svg>