<svg width="48" height="48" xmlns="http://www.w3.org/2000/svg">
 <!-- Created with SVG-edit - http://svg-edit.googlecode.com/ -->
 <g>
  <title>Layer 1</title>
  <ellipse transform="rotate(-90.86804962158203 8.484834671020502,34.335456848144524) " ry="2.921393" rx="3.719901" id="svg_4" cy="34.335458" cx="8.484835" stroke-linecap="null" stroke-linejoin="null" stroke-width="2" stroke="#000000" fill="#000000"/>
  <ellipse transform="rotate(-90.86804962158203 8.320891380310053,23.51516723632812) " id="svg_6" ry="2.921393" rx="3.719901" cy="23.515167" cx="8.320891" stroke-linecap="null" stroke-linejoin="null" stroke-width="2" stroke="#000000" fill="#ffffff"/>
  <ellipse transform="rotate(-90.86804962158203 8.146703720092773,12.018611907958986) " id="svg_7" ry="2.921393" rx="3.719901" cy="12.018612" cx="8.146703" stroke-linecap="null" stroke-linejoin="null" stroke-width="2" stroke="#000000" fill="#ffffff"/>
  <ellipse transform="rotate(-90.86804962158203 19.572570800781243,34.19776535034179) " id="svg_8" ry="2.921393" rx="3.719901" cy="34.197765" cx="19.572571" stroke-linecap="null" stroke-linejoin="null" stroke-width="2" stroke="#000000" fill="#ffffff"/>
  <ellipse transform="rotate(-90.86804962158203 18.74925804138184,22.711040496826175) " id="svg_9" ry="2.921393" rx="3.719901" cy="22.711041" cx="18.749258" stroke-linecap="null" stroke-linejoin="null" stroke-width="2" stroke="#000000" fill="#000000"/>
  <ellipse transform="rotate(-90.86804962158203 19.234437942504883,11.88092041015625) " id="svg_10" ry="2.921393" rx="3.719901" cy="11.88092" cx="19.234439" stroke-linecap="null" stroke-linejoin="null" stroke-width="2" stroke="#000000" fill="#000000"/>
  <ellipse transform="rotate(-90.86804962158203 43.76108169555663,30.89498138427734) " id="svg_11" ry="2.921393" rx="3.719901" cy="30.894979" cx="43.761082" stroke-linecap="null" stroke-linejoin="null" stroke-width="2" stroke="#000000" fill="#ffffff"/>
  <ellipse transform="rotate(-90.86804962158203 43.586891174316406,16.39842033386231) " id="svg_12" ry="2.921393" rx="3.719901" cy="16.398421" cx="43.586892" stroke-linecap="null" stroke-linejoin="null" stroke-width="2" stroke="#000000" fill="#000000"/>
  <line id="svg_13" y2="44.500002" x2="2" y1="3.5" x1="2" stroke-linecap="null" stroke-linejoin="null" stroke-width="2" stroke="#000000" fill="none"/>
  <line id="svg_14" y2="44.500002" x2="26" y1="3.5" x1="26" stroke-linecap="null" stroke-linejoin="null" stroke-width="2" stroke="#000000" fill="none"/>
  <line id="svg_16" y2="4.5" x2="8" y1="4.5" x1="1" stroke-linecap="null" stroke-linejoin="null" stroke-width="2" stroke="#000000" fill="none"/>
  <line id="svg_17" y2="43.5" x2="8" y1="43.5" x1="2" stroke-linecap="null" stroke-linejoin="null" stroke-width="2" stroke="#000000" fill="none"/>
  <line id="svg_18" y2="4.5" x2="25" y1="4.5" x1="20" stroke-linecap="null" stroke-linejoin="null" stroke-width="2" stroke="#000000" fill="none"/>
  <line id="svg_19" y2="43.5" x2="26" y1="43.5" x1="21" stroke-linecap="null" stroke-linejoin="null" stroke-width="2" stroke="#000000" fill="none"/>
  <line id="svg_20" y2="79.5" x2="13" y1="79.5" x1="14" stroke-linecap="null" stroke-linejoin="null" stroke-width="2" stroke="#000000" fill="none"/>
  <path id="svg_21" d="m32.539871,28.146048c-0.51849,-0.262066 -0.450455,-0.420761 0.810131,-1.889803c0.636539,-0.741791 1.157322,-1.37027 1.157322,-1.396618c0,-0.026344 -1.757675,-0.047899 -3.905983,-0.047899l-3.905962,0l0,-1.389301l0,-1.389299l3.936928,0c3.035608,0 3.90304,-0.041853 3.788942,-0.182802c-0.081417,-0.100544 -0.636684,-0.767717 -1.233955,-1.482611c-1.125858,-1.347589 -1.125504,-1.708982 0.001762,-1.821001c0.560982,-0.055746 9.294849,4.227442 9.595055,4.705526c-2.909176,1.707022 -6.386623,3.493835 -9.589935,5.069302c-0.1689,0 -0.463348,-0.07897 -0.654305,-0.175493z" stroke-linecap="null" stroke-linejoin="null" stroke="#000000" fill="#000000"/>
 </g>
</svg>