<?xml version="1.0" ?><!DOCTYPE svg  PUBLIC '-//W3C//DTD SVG 1.1//EN'  'http://www.w3.org/Graphics/SVG/1.1/DTD/svg11.dtd'><svg enable-background="new 0 0 30 30" height="30px" id="Capa_1" version="1.1" viewBox="0 0 30 30" width="30px" xml:space="preserve" xmlns="http://www.w3.org/2000/svg" xmlns:xlink="http://www.w3.org/1999/xlink"><path d="M28.9,0.2c-0.2-0.1-0.5-0.2-0.7-0.1l-9.9,4.3L10,0.8c-0.2-0.1-0.4-0.1-0.6,0L1.2,4.6C0.9,4.7,0.8,5,0.8,5.3  v23.9c0,0.3,0.1,0.5,0.4,0.6c0.1,0.1,0.3,0.1,0.4,0.1c0.1,0,0.2,0,0.3-0.1l7.9-3.9l8.2,3.8c0.2,0.1,0.4,0.1,0.6,0l0.1,0c0,0,0,0,0,0  l10.1-4.2c0.3-0.1,0.5-0.4,0.5-0.7V0.8C29.2,0.6,29.1,0.4,28.9,0.2z M8.8,24.7l-6.6,3.3V5.8l6.6-3V24.7z M17.6,27.9l-7.3-3.3V2.6  l7.3,3.2V27.9z M27.7,24.2l-8.6,3.6V5.7L27.7,2V24.2z" fill="#262324"/></svg>